<svg xmlns="http://www.w3.org/2000/svg" viewBox="0 0 356.77 100">
  <title>glw</title>
  <path d="M47.59,21.77,11.71,45.51l-.22,1.1L38.73,74l-8.1,7.88L0,50,1.75,40,42.67,12.58Z"/>
  <path d="M83.15,91.25l2.62-11.49c-18.81,3.5-29.1-6-29.1-24.29,0-23.85,15.54-45.29,34.9-45.29,13.24,0,18.27,8.86,17.18,27.46L94,37.86c.22-9.63-1-13.68-5.58-13.68-9.41,0-15.86,15.64-15.86,29.21,0,11,5,15.65,16.3,12.8L91.9,52.52l14.77-.44-9.3,39Z"/>
  <path d="M124.72,68.6l-5.47,3.17-3.5-5.91,7.44-4.7c-.11-1.53-.22-3.06-.22-4.7C123,26.26,141.35,2,158.75,2c7.44,0,12.14,4.59,12.14,13.24,0,14-11.6,30.09-31.84,45.4,2.08,9.08,9.41,9.74,23.86,4.71l2,7.33C143.87,84.57,129.43,82.82,124.72,68.6ZM138.4,51.2C151,39.5,157,28.77,157,21.88c0-3.61-1.75-5-3.83-5C146.71,16.85,139.05,30.2,138.4,51.2Z"/>
  <path d="M201.31,57.11,189.93,79.43h-14c.44-10.83,2.85-34.13,6-55.25H197c-3,13.57-4.71,23-7.55,38.07h.33l11.05-23.08h8.86l2,23.08h.55c2.95-15.75,4.59-24.83,6.89-38.07h15.64c-4.26,16.74-8.75,31.18-16.73,55.25H203.6Z"/>
  <path d="M310.82,3.94,245.39,100l-10.5-3.06L301.08,0Z"/>
  <path d="M309.18,72.54l35.88-23.63.22-1.21L317.93,20.46l8.1-7.88,30.74,31.84-1.86,10L314.1,81.84Z"/>
</svg>
