<svg xmlns="http://www.w3.org/2000/svg" viewBox="0 0 595.27 100">
  <title>glweems</title>
  <path d="M47.59,21.77,11.71,45.51l-.22,1.1L38.73,74l-8.1,7.88L0,50,1.75,40,42.67,12.58Z"/>
  <path d="M83.15,91.25l2.62-11.49c-18.81,3.5-29.1-6-29.1-24.29,0-23.85,15.54-45.29,34.9-45.29,13.24,0,18.27,8.86,17.18,27.46L94,37.86c.22-9.63-1-13.68-5.58-13.68-9.41,0-15.86,15.64-15.86,29.21,0,11,5,15.65,16.3,12.8L91.9,52.52l14.77-.44-9.3,39Z"/>
  <path d="M124.72,68.6l-5.47,3.17-3.5-5.91,7.44-4.7c-.11-1.53-.22-3.06-.22-4.7C123,26.26,141.35,2,158.75,2c7.44,0,12.14,4.59,12.14,13.24,0,14-11.6,30.09-31.84,45.4,2.08,9.08,9.41,9.74,23.86,4.71l2,7.33C143.87,84.57,129.43,82.82,124.72,68.6ZM138.4,51.2C151,39.5,157,28.77,157,21.88c0-3.61-1.75-5-3.83-5C146.71,16.85,139.05,30.2,138.4,51.2Z"/>
  <path d="M201.31,57.11,189.93,79.43h-14c.44-10.83,2.85-34.13,6-55.25H197c-3,13.57-4.71,23-7.55,38.07h.33l11.05-23.08h8.86l2,23.08h.55c2.95-15.75,4.59-24.83,6.89-38.07h15.64c-4.26,16.74-8.75,31.18-16.73,55.25H203.6Z"/>
  <path d="M236.42,59.41c0-17.83,15.54-37.09,34.9-37.09,10.4,0,16.85,5.58,16.85,14.55,0,12.8-12.8,20.57-37.09,22.32.66,9.52,7.44,10.61,33,5.91l1.42,7.77C252.73,89.39,236.42,77.46,236.42,59.41Zm15.43-8.32c13.79-1,22-4.37,22-10.72,0-3.39-2.62-5.8-6.78-5.8C259.51,34.57,253.82,42.34,251.85,51.09Z"/>
  <path d="M296.6,59.41c0-17.83,15.53-37.09,34.9-37.09,10.39,0,16.85,5.58,16.85,14.55,0,12.8-12.8,20.57-37.09,22.32.65,9.52,7.44,10.61,33,5.91l1.42,7.77C312.9,89.39,296.6,77.46,296.6,59.41ZM312,51.09c13.79-1,22-4.37,22-10.72,0-3.39-2.62-5.8-6.78-5.8C319.68,34.57,314,42.34,312,51.09Z"/>
  <path d="M390.79,75c0-6.24,6.46-30.2,6.46-35,0-1.64-.44-2.4-2-2.4a7.8,7.8,0,0,0-4.49,1.75L383,79.43H372.85l6.89-35.67c.88-4.15,1-6.23-1.42-6.23a8.11,8.11,0,0,0-4.92,2.08c-3.06,16.52-7.66,39.82-7.66,39.82H351.63c5-26.15,7.44-38.73,10.17-54.92l13.46-.77-.55,5.47c4.05-4.37,8.1-6.56,11.49-6.56,3.94,0,5.91,2.4,5.8,7.88,5-5.26,10.06-7.88,14.33-7.88s6.46,2.4,6.46,7.55c0,9.3-7.77,33.26-7.77,38.29,0,1,.87,1.42,3,1.2l1.1,7.55C395.94,82.06,390.79,81.51,390.79,75Z"/>
  <path d="M424.38,80.53l.33-13.68c19.26,1,25.6-.11,25.6-4s-5.69-8.86-10.72-14.44A169.92,169.92,0,0,1,422.19,58L419,51.2A162,162,0,0,0,434.34,41a15.41,15.41,0,0,1-1.86-6.89c0-8.54,8.53-13.46,16.63-13.46,9.41,0,13.45,7.33,2.51,18.27,4.71,6.45,13.79,14.11,13.79,23.08C465.41,71.88,456.11,80.85,424.38,80.53Z"/>
  <path d="M549.32,3.94,483.9,100l-10.51-3.06L539.59,0Z"/>
  <path d="M547.68,72.54l35.89-23.63.22-1.21L556.43,20.46l8.1-7.88,30.74,31.84-1.86,10L552.6,81.84Z"/>
</svg>
