<?xml version="1.0" encoding="utf-8"?>
<!-- Generator: Adobe Illustrator 23.0.4, SVG Export Plug-In . SVG Version: 6.00 Build 0)  -->
<svg version="1.1" id="Layer_1" xmlns="http://www.w3.org/2000/svg" xmlns:xlink="http://www.w3.org/1999/xlink" x="0px" y="0px"
	 viewBox="0 0 595.3 100" style="enable-background:new 0 0 595.3 100;" xml:space="preserve">
<style type="text/css">
	.st0{fill:#F7F7F7;}
</style>
<title>glweems</title>
<path class="st0" d="M47.6,21.8L11.7,45.5l-0.2,1.1L38.7,74l-8.1,7.9L0,50l1.8-10l40.9-27.4L47.6,21.8z M83.2,91.2l2.6-11.5
	c-18.8,3.5-29.1-6-29.1-24.3c0-23.9,15.5-45.3,34.9-45.3c13.2,0,18.3,8.9,17.2,27.5L94,37.9c0.2-9.6-1-13.7-5.6-13.7
	c-9.4,0-15.9,15.6-15.9,29.2c0,11,5,15.7,16.3,12.8l3-13.7l14.8-0.4l-9.3,39L83.2,91.2z M124.7,68.6l-5.5,3.2l-3.5-5.9l7.4-4.7
	c-0.1-1.5-0.2-3.1-0.2-4.7C123,26.3,141.4,2,158.8,2c7.4,0,12.1,4.6,12.1,13.2c0,14-11.6,30.1-31.8,45.4c2.1,9.1,9.4,9.7,23.9,4.7
	l2,7.3C143.9,84.6,129.4,82.8,124.7,68.6z M138.4,51.2C151,39.5,157,28.8,157,21.9c0-3.6-1.8-5-3.8-5
	C146.7,16.9,139.1,30.2,138.4,51.2z M201.3,57.1l-11.4,22.3h-14c0.4-10.8,2.9-34.1,6-55.2H197c-3,13.6-4.7,23-7.6,38.1h0.3
	l11.1-23.1h8.9l2,23.1h0.6c2.9-15.8,4.6-24.8,6.9-38.1h15.6c-4.3,16.7-8.8,31.2-16.7,55.2h-14.4L201.3,57.1z M236.4,59.4
	c0-17.8,15.5-37.1,34.9-37.1c10.4,0,16.9,5.6,16.9,14.5c0,12.8-12.8,20.6-37.1,22.3c0.7,9.5,7.4,10.6,33,5.9l1.4,7.8
	C252.7,89.4,236.4,77.5,236.4,59.4z M251.9,51.1c13.8-1,22-4.4,22-10.7c0-3.4-2.6-5.8-6.8-5.8C259.5,34.6,253.8,42.3,251.9,51.1z
	 M296.6,59.4c0-17.8,15.5-37.1,34.9-37.1c10.4,0,16.9,5.6,16.9,14.5c0,12.8-12.8,20.6-37.1,22.3c0.6,9.5,7.4,10.6,33,5.9l1.4,7.8
	C312.9,89.4,296.6,77.5,296.6,59.4z M312,51.1c13.8-1,22-4.4,22-10.7c0-3.4-2.6-5.8-6.8-5.8C319.7,34.6,314,42.3,312,51.1z
	 M390.8,75c0-6.2,6.5-30.2,6.5-35c0-1.6-0.4-2.4-2-2.4c-1.6,0.1-3.2,0.7-4.5,1.8L383,79.4h-10.1l6.9-35.7c0.9-4.2,1-6.2-1.4-6.2
	c-1.8,0.1-3.6,0.9-4.9,2.1c-3.1,16.5-7.7,39.8-7.7,39.8h-14.1c5-26.2,7.4-38.7,10.2-54.9l13.5-0.8l-0.5,5.5c4-4.4,8.1-6.6,11.5-6.6
	c3.9,0,5.9,2.4,5.8,7.9c5-5.3,10.1-7.9,14.3-7.9s6.5,2.4,6.5,7.5c0,9.3-7.8,33.3-7.8,38.3c0,1,0.9,1.4,3,1.2l1.1,7.6
	C395.9,82.1,390.8,81.5,390.8,75z M424.4,80.5l0.3-13.7c19.3,1,25.6-0.1,25.6-4s-5.7-8.9-10.7-14.4c-5.6,3.5-11.4,6.7-17.4,9.6
	l-3.2-6.8c5.3-3.1,10.4-6.5,15.3-10.2c-1.2-2.1-1.8-4.5-1.9-6.9c0-8.5,8.5-13.5,16.6-13.5c9.4,0,13.5,7.3,2.5,18.3
	c4.7,6.5,13.8,14.1,13.8,23.1C465.4,71.9,456.1,80.8,424.4,80.5z M549.3,3.9L483.9,100l-10.5-3.1L539.6,0L549.3,3.9z M547.7,72.5
	l35.9-23.6l0.2-1.2l-27.4-27.2l8.1-7.9l30.7,31.8l-1.9,10l-40.8,27.4L547.7,72.5z"/>
</svg>
